<svg width="146" height="40" viewBox="0 0 146 40" fill="none" xmlns="http://www.w3.org/2000/svg">
<g clip-path="url(#clip0_489_23233)">
<path d="M18.2027 12.2219C19.4118 13.5362 20.1216 15.2712 20.1479 17.0587C20.0953 18.8462 19.4118 20.5811 18.2027 21.8954C18.2289 21.8954 18.2289 21.8954 18.2289 21.9217C17.5718 22.6051 16.7832 23.1835 15.9157 23.5778C15.022 23.9983 14.0231 24.2086 13.0242 24.2086H2.14149V19.6085H13.1293C13.7339 19.5296 14.3122 19.2142 14.7065 18.741C15.1271 18.2941 15.3374 17.6895 15.3374 17.0849V17.0587C15.3637 16.4541 15.1271 15.8758 14.7328 15.4289C14.3385 14.982 13.7865 14.6929 13.2082 14.5614H7.63541C6.63652 14.5614 5.66391 14.3511 4.74387 13.9305C3.87641 13.51 3.08781 12.9579 2.43065 12.2745V12.2482C1.85234 11.6173 1.37918 10.855 1.03745 10.0664C0.695726 9.22523 0.511719 8.33148 0.511719 7.41145C0.511719 6.49142 0.669439 5.59767 1.03745 4.7565C1.37918 3.94161 1.85234 3.20558 2.43065 2.5747V2.54842C3.08781 1.86496 3.87641 1.28665 4.74387 0.892355C5.63762 0.471768 6.63652 0.261475 7.63541 0.261475H18.5444V4.88793H7.55655C6.95196 4.96679 6.37365 5.28223 5.97935 5.75539C5.55876 6.20226 5.34847 6.80686 5.34847 7.41145V7.43774C5.34847 8.04233 5.55876 8.62064 5.95306 9.06751C6.34736 9.51438 6.8731 9.82982 7.4514 9.93497H13.0505C14.0494 9.93497 15.022 10.1453 15.942 10.5396C16.8095 10.9339 17.5981 11.4859 18.2552 12.1693C18.2289 12.1956 18.2289 12.2219 18.2027 12.2219Z" fill="#404450"/>
<path d="M35.8687 12.8788C34.8698 10.513 32.136 9.38271 29.7702 10.3816C28.0353 11.1176 26.905 12.8 26.905 14.6926V24.2347H22.0156V0.182373H26.905V6.35974C27.6147 5.96544 28.3507 5.67629 29.113 5.46599C29.9016 5.2557 30.7428 5.15055 31.5577 5.15055C32.8457 5.15055 34.1075 5.38713 35.2904 5.88658C37.5773 6.85919 39.3911 8.67297 40.3637 10.9599C40.8632 12.1428 41.1261 13.4046 41.0998 14.6926V24.2347H36.2104V14.6926C36.2367 14.0617 36.1316 13.4571 35.8687 12.8788Z" fill="#404450"/>
<path d="M52.5605 5.15063C53.8486 5.15063 55.1104 5.38721 56.2933 5.88666C58.5802 6.85927 60.394 8.67305 61.3666 10.96C61.866 12.1429 62.1289 13.4047 62.1026 14.6927C62.1026 15.9807 61.866 17.2425 61.3666 18.4254C60.394 20.7123 58.5802 22.5261 56.2933 23.4987C53.9012 24.4976 51.2462 24.4976 48.8541 23.4987C46.5672 22.5261 44.7534 20.7123 43.7808 18.4254C43.2813 17.2425 43.0185 15.9807 43.0448 14.6927C43.0448 13.4047 43.2813 12.1429 43.7808 10.96C44.7534 8.67305 46.5672 6.85927 48.8541 5.88666C50.037 5.38721 51.2988 5.15063 52.5605 5.15063ZM52.5605 19.3454C55.1366 19.3454 57.2396 17.2425 57.2396 14.6664C57.2396 12.0903 55.1366 9.98738 52.5605 9.98738C49.9845 9.98738 47.8815 12.0903 47.8815 14.6664C47.8815 16.5591 49.0118 18.2677 50.7468 18.9774C51.3251 19.214 51.956 19.3454 52.5605 19.3454Z" fill="#404450"/>
<path d="M83.1037 14.6927C83.1037 15.9807 82.8671 17.2425 82.3676 18.4254C81.395 20.7123 79.5813 22.5261 77.2943 23.4987C76.1114 23.9981 74.8497 24.261 73.5616 24.2347C71.9318 24.2347 70.3283 23.8404 68.9089 23.0518V29.2029H64.0195V14.6927C64.0195 13.4046 64.2561 12.1428 64.7556 10.9599C65.7282 8.67301 67.5419 6.85923 69.8289 5.88662C72.221 4.88773 74.8759 4.88773 77.268 5.88662C79.555 6.85923 81.3688 8.67301 82.3414 10.9599C82.8408 12.1428 83.1037 13.4046 83.1037 14.6927ZM78.2143 14.6927C78.2143 12.0903 76.1114 10.0136 73.509 10.0136C70.9066 10.0136 68.83 12.1166 68.83 14.7189C68.83 17.3213 70.9329 19.398 73.5353 19.398C75.428 19.398 77.1366 18.2676 77.8726 16.5064C78.0829 15.9281 78.2143 15.3235 78.2143 14.6927Z" fill="#404450"/>
<path d="M104.08 14.6927C104.08 15.9807 103.844 17.2425 103.344 18.4254C102.372 20.7123 100.558 22.5261 98.2709 23.4987C97.088 23.9981 95.8262 24.261 94.5382 24.2347C92.9084 24.2347 91.3049 23.8404 89.8854 23.0518V29.2029H84.9961V14.6927C84.9961 13.4046 85.2327 12.1428 85.7321 10.9599C86.7047 8.67301 88.5185 6.85923 90.8055 5.88662C93.1975 4.88773 95.8525 4.88773 98.2446 5.88662C100.532 6.85923 102.345 8.67301 103.318 10.9599C103.844 12.1428 104.08 13.4046 104.08 14.6927ZM99.1909 14.6927C99.1909 12.0903 97.088 10.0136 94.4856 10.0136C91.8832 10.0136 89.8066 12.1166 89.8066 14.7189C89.8066 17.3213 91.9095 19.398 94.5119 19.398C96.4045 19.398 98.1132 18.2676 98.8229 16.5064C99.0858 15.9281 99.1909 15.3235 99.1909 14.6927Z" fill="#72AA18"/>
<path d="M105.973 5.15063H110.862V14.6927C110.836 17.2688 112.886 19.3717 115.462 19.398C118.038 19.4243 120.141 17.3739 120.167 14.7978C120.167 14.7716 120.167 14.719 120.167 14.6927V5.15063H125.057V14.6927C125.057 15.9807 124.82 17.2425 124.321 18.4254C123.348 20.7123 121.534 22.5261 119.247 23.4987C116.855 24.4976 114.2 24.4976 111.808 23.4987C109.521 22.5261 107.708 20.7123 106.735 18.4254C106.236 17.2425 105.973 15.9807 105.999 14.6927L105.973 5.15063Z" fill="#72AA18"/>
<path d="M131.841 6.38603C132.551 5.99173 133.287 5.70257 134.049 5.49228C134.838 5.28199 135.679 5.17684 136.494 5.17684C137.782 5.17684 139.044 5.41342 140.227 5.91287C142.514 6.88547 144.328 8.69925 145.3 10.9862C146.299 13.3783 146.299 16.0332 145.3 18.4253C144.328 20.7123 142.514 22.526 140.227 23.4986C137.835 24.4975 135.18 24.4975 132.788 23.4986C130.501 22.526 128.687 20.7123 127.714 18.4253C127.215 17.2424 126.952 15.9807 126.978 14.6926V0.182373H131.868L131.841 6.38603ZM136.52 19.3454C139.097 19.3716 141.199 17.3213 141.226 14.7452C141.252 12.1691 139.202 10.0662 136.626 10.0399C136.599 10.0399 136.547 10.0399 136.52 10.0399C135.916 10.0399 135.285 10.1713 134.733 10.4079C134.181 10.6445 133.681 10.9599 133.261 11.3542C132.84 11.7485 132.499 12.2217 132.262 12.7737C132.025 13.3257 131.894 13.904 131.868 14.5086V14.6926C131.868 17.2687 133.944 19.3454 136.494 19.3454C136.494 19.3454 136.494 19.3454 136.52 19.3454Z" fill="#72AA18"/>
<path d="M49.7197 28.8875C49.7197 28.8875 52.2958 33.8031 57.5269 35.0648C62.7842 36.3529 66.3067 35.0122 66.3067 35.0122L68.5147 37.2729C68.5147 37.2729 64.046 40.3484 56.3177 38.0878C51.7964 36.826 48.1688 33.4613 46.5391 29.0715L49.7197 28.8875Z" fill="#404450"/>
</g>
<defs>
<clipPath id="clip0_489_23233">
<rect width="146" height="40" fill="white"/>
</clipPath>
</defs>
</svg>
