<?xml version="1.0" encoding="UTF-8"?>
<svg id="Camada_2" data-name="Camada 2" xmlns="http://www.w3.org/2000/svg" xmlns:xlink="http://www.w3.org/1999/xlink" viewBox="0 0 409.43 89.02">
  <defs>
    <style>
      .cls-1 {
        fill: url(#linear-gradient-2);
      }

      .cls-2 {
        fill: #444242;
      }

      .cls-3 {
        fill: url(#Gradiente_sem_nome_9);
      }

      .cls-4 {
        fill: url(#linear-gradient);
      }

      .cls-5 {
        fill: url(#Gradiente_sem_nome_9-2);
      }
    </style>
    <linearGradient id="Gradiente_sem_nome_9" data-name="Gradiente sem nome 9" x1="230.4" y1="42.9" x2="307.33" y2="42.9" gradientUnits="userSpaceOnUse">
      <stop offset="0" stop-color="#444242"/>
      <stop offset=".26" stop-color="#494848"/>
      <stop offset=".62" stop-color="#5a595b"/>
      <stop offset="1" stop-color="#727176"/>
    </linearGradient>
    <linearGradient id="Gradiente_sem_nome_9-2" data-name="Gradiente sem nome 9" x1="310.77" y1="42.5" x2="396.56" y2="42.5" xlink:href="#Gradiente_sem_nome_9"/>
    <linearGradient id="linear-gradient" x1="405.59" y1="4124.44" x2="333.27" y2="4191.74" gradientTransform="translate(0 4217.25) scale(1 -1)" gradientUnits="userSpaceOnUse">
      <stop offset="0" stop-color="#f5de2d"/>
      <stop offset="1" stop-color="#7a9a34"/>
    </linearGradient>
    <linearGradient id="linear-gradient-2" x1="311.46" y1="4169.42" x2="396.13" y2="4169.42" xlink:href="#linear-gradient"/>
  </defs>
  <g id="Camada_1-2" data-name="Camada 1">
    <g>
      <g>
        <path class="cls-2" d="M36.66,73.34c-2.85,2.05-7.05,3.03-11.33,3.03-11.33,0-17.93-5.8-17.93-17.22v-19.71H0v-10.7h7.4v-11.69h13.92v11.69h11.95v10.7h-11.95v19.54c0,4.1,2.23,6.33,5.98,6.33,2.05,0,4.1-.62,5.62-1.78l3.75,9.81Z"/>
        <path class="cls-2" d="M70.74,26.96v12.85c-1.16-.09-2.05-.18-3.12-.18-7.67,0-12.76,4.19-12.76,13.38v22.66h-13.92V27.67h13.29v6.33c3.39-4.64,9.1-7.05,16.5-7.05Z"/>
        <path class="cls-2" d="M117.66,48.27v27.39h-13.02v-5.98c-2.59,4.37-7.58,6.69-14.63,6.69-11.24,0-17.93-6.24-17.93-14.54s5.98-14.36,20.61-14.36h11.06c0-5.98-3.57-9.46-11.06-9.46-5.08,0-10.35,1.69-13.83,4.46l-5-9.72c5.26-3.75,13.02-5.8,20.69-5.8,14.63,0,23.1,6.78,23.1,21.32ZM103.74,60.5v-4.91h-9.54c-6.51,0-8.56,2.41-8.56,5.62,0,3.48,2.94,5.8,7.85,5.8,4.64,0,8.65-2.14,10.26-6.51Z"/>
        <path class="cls-2" d="M123.63,51.67c0-14.45,11.15-24.71,26.76-24.71,10.08,0,18.02,4.37,21.5,12.22l-10.79,5.8c-2.59-4.55-6.42-6.6-10.79-6.6-7.05,0-12.58,4.91-12.58,13.29s5.53,13.29,12.58,13.29c4.37,0,8.21-1.96,10.79-6.6l10.79,5.89c-3.48,7.67-11.42,12.13-21.5,12.13-15.61,0-26.76-10.26-26.76-24.71Z"/>
        <path class="cls-2" d="M196.6,56.84l-6.69,6.6v12.22h-13.92V9.47h13.92v37.46l20.34-19.27h16.59l-19.98,20.34,21.77,27.65h-16.86l-15.17-18.82Z"/>
      </g>
      <g>
        <g>
          <path class="cls-3" d="M279.4,52.2h7.96v11.73c-1.11,1.11-2.8,1.89-5.09,2.35-2.33.46-4.45.69-6.35.69-4.73,0-9.04-.97-12.94-2.92-3.89-1.87-6.96-4.64-9.21-8.3-2.29-3.62-3.43-7.9-3.43-12.82,0-3.51.59-6.7,1.77-9.56,1.22-2.94,2.88-5.49,4.98-7.67,2.1-2.1,4.65-3.76,7.67-4.98,2.94-1.18,6.14-1.77,9.62-1.77s6.85.65,10.13,1.95c3.32,1.34,6.24,3.15,8.76,5.44l11.73-14.54c-2.6-2.29-5.65-4.33-9.16-6.12-3.43-1.75-7.08-3.07-10.93-3.95-3.93-.88-7.78-1.32-11.56-1.32-7.71,0-14.86,1.89-21.46,5.67-6.64,3.85-11.87,9.01-15.68,15.45-3.85,6.56-5.78,13.7-5.78,21.41s1.93,14.86,5.78,21.35c3.81,6.49,9.04,11.64,15.68,15.45,6.6,3.78,13.75,5.67,21.46,5.67,2.98,0,6.12-.23,9.44-.69,3.51-.5,6.56-1.09,9.16-1.77,2.79-.69,5.61-1.58,8.47-2.69,3.09-1.18,5.4-2.25,6.93-3.21v-41.95h-35.09l7.15,17.11Z"/>
          <path class="cls-5" d="M390.78,21.12c-3.82-6.49-9.02-11.64-15.63-15.45-6.56-3.78-13.72-5.67-21.46-5.67s-14.86,1.89-21.46,5.67c-6.64,3.85-11.87,9.01-15.68,15.45-3.85,6.56-5.78,13.7-5.78,21.41s1.93,14.86,5.78,21.35c3.81,6.49,9.04,11.64,15.68,15.45,6.6,3.78,13.75,5.67,21.46,5.67s14.9-1.89,21.46-5.67c6.6-3.78,11.81-8.93,15.63-15.45,3.85-6.49,5.78-13.6,5.78-21.35s-1.93-14.84-5.78-21.41ZM373.55,54.2c-2.14,3.78-4.94,6.77-8.41,8.99-3.51,2.25-7.33,3.38-11.45,3.38s-7.99-1.12-11.5-3.38c-3.47-2.21-6.26-5.21-8.36-8.99-2.1-3.7-3.15-7.59-3.15-11.68s1.03-7.97,3.09-11.68c2.06-3.74,4.87-6.72,8.41-8.93,3.51-2.25,7.34-3.38,11.5-3.38s7.92,1.13,11.5,3.38c3.51,2.25,6.3,5.23,8.36,8.93,2.06,3.7,3.09,7.59,3.09,11.68s-1.03,7.94-3.09,11.68Z"/>
        </g>
        <g>
          <path class="cls-4" d="M409.43,49.17c-3.08-9.21-8.02-18.15-14.13-25.71-5.45,8.11-10.91,16.22-16.36,24.32,2.23-.51,5.47-1.18,8.42-1.77-.28,4.23-1.3,8.43-3.08,12.38-2.45,5.18-6.19,9.86-10.89,13.44-4.75,3.49-10.38,5.96-16.4,6.86-6.03.87-12.32.29-18.22-1.75-5.84-2.16-11.29-5.74-15.59-10.5-6.34-7.61-10.27-16.95-10.19-26.9.03-3.33.45-6.68,1.29-9.95.85-3.26,2.11-6.45,3.74-9.45,1.64-3,3.67-5.8,6-8.36-2.57,2.3-4.9,4.93-6.89,7.82-1.96,2.9-3.6,6.05-4.83,9.38-1.21,3.33-2.02,6.83-2.4,10.4-.03.34-.07.68-.09,1.02-1.33,18.3,9.09,36.4,25.77,44.16,6.89,3.21,14.63,4.75,22.37,4.42,7.76-.37,15.48-2.78,22.29-6.83,6.77-4.13,12.58-9.97,16.76-16.92,3.24-5.54,5.43-11.76,6.39-18.2,2.25.69,4.47,1.44,6.04,2.15Z"/>
          <path class="cls-1" d="M396.13,41.51l-.82-18.04c-5.45,8.11-10.91,16.22-16.36,24.32,2.23-.51,5.47-1.18,8.42-1.77-.28,4.23-1.3,8.43-3.08,12.38-2.45,5.18-6.19,9.86-10.89,13.44-4.75,3.49-10.38,5.96-16.4,6.86-6.03.87-12.32.29-18.22-1.75-5.84-2.16-11.29-5.74-15.59-10.5-6.34-7.61-10.27-16.95-10.19-26.9.03-3.33.45-6.68,1.29-9.95.85-3.26,2.11-6.45,3.74-9.45,1.64-3,3.67-5.8,6-8.36-7.64,7.66-12.56,18.04-12.56,29.72,0,23.38,18.96,42.34,42.34,42.34s42.33-18.96,42.33-42.34Z"/>
        </g>
      </g>
    </g>
  </g>
</svg>